<?xml version="1.0" encoding="UTF-8" standalone="no" ?>
<!DOCTYPE svg PUBLIC "-//W3C//DTD SVG 1.1//EN" "http://www.w3.org/Graphics/SVG/1.1/DTD/svg11.dtd">
<svg xmlns="http://www.w3.org/2000/svg" xmlns:xlink="http://www.w3.org/1999/xlink" version="1.1" width="7492.202116892577" height="3099.9999999999995" viewBox="0 0 7492.2 3100" xml:space="preserve">
<desc>Created with Fabric.js 2.0.0-beta5</desc>
<defs>
</defs>
<g transform="translate(3746.1 1550) scale(11.82 11.82)" style="">
		<g transform="translate(85.56 -8.47) scale(4.87 6.54)">
		<text xml:space="preserve" font-family="Love Ya Like A Sister" font-size="16" font-weight="normal" style="stroke: none; stroke-width: 1; stroke-dasharray: none; stroke-linecap: butt; stroke-linejoin: miter; stroke-miterlimit: 10; fill: rgb(161,67,67); fill-rule: nonzero; opacity: 1; white-space: pre;" >
			<tspan x="-46.12" y="5.03" >ochitl Ibarra</tspan>
		</text>
	</g>
	<g transform="translate(-188.28 0) scale(2.34 3.08)" style="">
	<path d="M 12.716 12.718 h 11.786 l 5.59 5.589 l -0.207 0.606 c -0.384 1.116 -0.106 2.327 0.725 3.158 c 1.198 1.197 3.136 1.193 4.329 0 c 0.578 -0.577 0.896 -1.346 0.896 -2.164 c 0 -2.073 -2.031 -3.584 -4.055 -2.89 l -0.605 0.207 l -4.508 -4.506 h 9.934 L 23.886 0 H 0.001 L 12.716 12.718 z" style="stroke: none; stroke-width: 1; stroke-dasharray: none; stroke-linecap: butt; stroke-linejoin: miter; stroke-miterlimit: 10; fill: rgb(217,31,93); fill-rule: nonzero; opacity: 1;" transform="translate(-34.33 -29.2) translate(-18.301000000000002, -11.48362531380709)  matrix(1 0 0 1 0 0) " stroke-linecap="round" />
	<path d="M 82.394 68.659 l -5.928 -5.928 l 0.207 -0.605 c 0.382 -1.117 0.105 -2.327 -0.726 -3.159 c -1.195 -1.196 -3.132 -1.194 -4.329 0 c -1.198 1.197 -1.195 3.133 0 4.328 c 0.579 0.578 1.341 0.897 2.148 0.897 c 0.615 0 0.991 -0.164 1.615 -0.378 l 4.845 4.845 H 68.66 l 12.717 12.717 h 23.884 L 92.544 68.659 H 82.394 z" style="stroke: none; stroke-width: 1; stroke-dasharray: none; stroke-linecap: butt; stroke-linejoin: miter; stroke-miterlimit: 10; fill: rgb(37,142,204); fill-rule: nonzero; opacity: 1;" transform="translate(34.33 29.04) translate(-86.9605, -69.72337492154816)  matrix(1 0 0 1 0 0) " stroke-linecap="round" />
	<polygon points="11.25,-5.63 -11.26,-5.63 0,5.63 " style="stroke: none; stroke-width: 1; stroke-dasharray: none; stroke-linecap: butt; stroke-linejoin: miter; stroke-miterlimit: 10; fill: rgb(107,55,146); fill-rule: nonzero; opacity: 1;" transform="translate(-12.92 -6.6)  matrix(1 0 0 1 0 0) "/>
	<polygon points="0,-5.63 -11.26,5.63 11.26,5.63 " style="stroke: none; stroke-width: 1; stroke-dasharray: none; stroke-linecap: butt; stroke-linejoin: miter; stroke-miterlimit: 10; fill: rgb(46,53,140); fill-rule: nonzero; opacity: 1;" transform="translate(12.92 6.6)  matrix(1 0 0 1 0 0) "/>
	<path d="M 25.027 68.659 l 4.168 -4.168 l 0.606 0.208 c 1.081 0.369 2.305 0.126 3.16 -0.727 c 1.193 -1.193 1.193 -3.136 0 -4.328 c -1.199 -1.197 -3.133 -1.197 -4.329 0 c -0.831 0.83 -1.11 2.04 -0.726 3.158 l 0.207 0.606 l -5.251 5.25 H 12.716 L 0 81.376 h 23.885 l 12.717 -12.717 H 25.027 z" style="stroke: none; stroke-width: 1; stroke-dasharray: none; stroke-linecap: butt; stroke-linejoin: miter; stroke-miterlimit: 10; fill: rgb(167,205,58); fill-rule: nonzero; opacity: 1;" transform="translate(-34.33 29.37) translate(-18.301000000000002, -70.061125)  matrix(1 0 0 1 0 0) " stroke-linecap="round" />
	<path d="M 82.962 67.285 h 8.208 L 78.177 54.29 H 54.289 l 12.995 12.995 h 9.625 l -1.896 -1.896 c -2.882 0.833 -5.665 -1.345 -5.665 -4.258 c 0 -2.444 1.989 -4.433 4.435 -4.433 c 2.968 0 5.077 2.837 4.256 5.664 L 82.962 67.285 z" style="stroke: none; stroke-width: 1; stroke-dasharray: none; stroke-linecap: butt; stroke-linejoin: miter; stroke-miterlimit: 10; fill: rgb(18,83,158); fill-rule: nonzero; opacity: 1;" transform="translate(20.1 20.1) translate(-72.7295, -60.787499999999994)  matrix(1 0 0 1 0 0) " stroke-linecap="round" />
	<path d="M 77.036 12.717 l 4.922 -4.922 c -0.39 -1.343 -0.139 -2.751 0.693 -3.871 c 1.645 -2.216 4.816 -2.379 6.7 -0.496 c 1.729 1.73 1.729 4.544 0 6.274 c -1.192 1.19 -2.87 1.551 -4.366 1.119 l -1.896 1.896 h 9.455 L 105.261 0 H 81.377 L 68.66 12.717 H 77.036 z" style="stroke: none; stroke-width: 1; stroke-dasharray: none; stroke-linecap: butt; stroke-linejoin: miter; stroke-miterlimit: 10; fill: rgb(250,193,25); fill-rule: nonzero; opacity: 1;" transform="translate(34.33 -34.33) translate(-86.9605, -6.358500000000001)  matrix(1 0 0 1 0 0) " stroke-linecap="round" />
	<path d="M 29.565 66.064 l -1.219 1.221 h 9.63 L 50.971 54.29 H 27.084 L 14.09 67.285 h 8.203 l 4.246 -4.246 c -0.451 -1.554 -0.024 -3.224 1.121 -4.367 c 1.73 -1.732 4.534 -1.737 6.271 0 c 1.73 1.729 1.73 4.543 0 6.273 C 32.729 66.145 31.043 66.494 29.565 66.064 z" style="stroke: none; stroke-width: 1; stroke-dasharray: none; stroke-linecap: butt; stroke-linejoin: miter; stroke-miterlimit: 10; fill: rgb(92,183,73); fill-rule: nonzero; opacity: 1;" transform="translate(-20.1 20.1) translate(-32.5305, -60.787499999999994)  matrix(1 0 0 1 0 0) " stroke-linecap="round" />
	<path d="M 63.887 41.375 h -9.256 l -4.386 4.386 c 0.827 2.853 -1.316 5.665 -4.257 5.665 c -2.445 0 -4.434 -1.989 -4.434 -4.436 c 0 -2.928 2.807 -5.087 5.664 -4.257 l 1.359 -1.359 H 40 L 28.46 52.916 h 23.886 L 63.887 41.375 z" style="stroke: none; stroke-width: 1; stroke-dasharray: none; stroke-linecap: butt; stroke-linejoin: miter; stroke-miterlimit: 10; fill: rgb(16,141,73); fill-rule: nonzero; opacity: 1;" transform="translate(-6.46 6.46) translate(-46.173500000000004, -47.144999999999996)  matrix(1 0 0 1 0 0) " stroke-linecap="round" />
	<path d="M 23.934 14.092 h -9.843 l 12.994 12.995 h 23.886 L 37.977 14.092 h -7.99 l 1.558 1.558 c 2.868 -0.829 5.667 1.331 5.666 4.258 c 0 2.418 -1.952 4.433 -4.436 4.433 c -2.952 0 -5.078 -2.817 -4.257 -5.664 L 23.934 14.092 z" style="stroke: none; stroke-width: 1; stroke-dasharray: none; stroke-linecap: butt; stroke-linejoin: miter; stroke-miterlimit: 10; fill: rgb(151,42,121); fill-rule: nonzero; opacity: 1;" transform="translate(-20.1 -20.1) translate(-32.531000000000006, -20.5895)  matrix(1 0 0 1 0 0) " stroke-linecap="round" />
	<path d="M 52.914 28.46 L 41.375 40.002 h 10.52 l -4.308 4.307 c -0.616 -0.212 -0.987 -0.375 -1.608 -0.375 c -0.813 0 -1.579 0.316 -2.156 0.893 c -1.193 1.193 -1.193 3.137 0 4.329 c 1.197 1.197 3.132 1.197 4.328 -0.001 c 0.832 -0.831 1.11 -2.042 0.727 -3.159 l -0.207 -0.604 l 5.39 -5.389 h 11.2 l 11.54 -11.542 H 65.759 l 5.024 -5.025 l 0.606 0.209 c 1.06 0.365 2.294 0.137 3.157 -0.726 c 1.193 -1.194 1.193 -3.136 0 -4.329 c -0.578 -0.579 -1.348 -0.898 -2.164 -0.898 c -2.071 0 -3.582 2.039 -2.891 4.058 l 0.207 0.605 l -6.106 6.106 H 52.914 z" style="stroke: none; stroke-width: 1; stroke-dasharray: none; stroke-linecap: butt; stroke-linejoin: miter; stroke-miterlimit: 10; fill: rgb(237,72,38); fill-rule: nonzero; opacity: 1;" transform="translate(6.46 -6.82) translate(-59.087999999999994, -33.87281251957203)  matrix(1 0 0 1 0 0) " stroke-linecap="round" />
	<path d="M 79.771 14.092 l 4.844 -4.844 l 0.606 0.207 c 2.012 0.692 4.053 -0.811 4.053 -2.89 c 0 -1.688 -1.372 -3.06 -3.058 -3.06 c -2.089 0 -3.581 2.043 -2.893 4.055 l 0.208 0.605 l -5.926 5.927 h -10.32 L 54.29 27.087 h 8.733 l 5.104 -5.102 c -0.823 -2.835 1.306 -5.668 4.256 -5.668 c 1.185 0 2.3 0.462 3.138 1.301 c 1.729 1.729 1.729 4.543 0 6.272 c -1.194 1.194 -2.877 1.551 -4.368 1.121 l -2.074 2.076 h 9.099 L 91.17 14.092 H 79.771 z" style="stroke: none; stroke-width: 1; stroke-dasharray: none; stroke-linecap: butt; stroke-linejoin: miter; stroke-miterlimit: 10; fill: rgb(245,149,35); fill-rule: nonzero; opacity: 1;" transform="translate(20.1 -25.39) translate(-72.73, -15.296)  matrix(1 0 0 1 0 0) " stroke-linecap="round" />
</g>
		<g transform="translate(100.2 47.61) scale(0.98 1.06)">
		<text xml:space="preserve" font-family="Love Ya Like A Sister" font-size="20" font-style="normal" font-weight="normal" style="stroke: none; stroke-width: 1; stroke-dasharray: none; stroke-linecap: butt; stroke-linejoin: miter; stroke-miterlimit: 10; fill: rgb(161,67,67); fill-rule: nonzero; opacity: 1; white-space: pre;" >
			<tspan x="-164.5" y="6.28" >Nadie conoce saltillo como su gente</tspan>
		</text>
	</g>
</g>
</svg>